<svg width="201" height="200" viewBox="0 0 201 200" fill="none" xmlns="http://www.w3.org/2000/svg">
<g clip-path="url(#clip0)">
<g clip-path="url(#clip1)">
<rect x="0.5" width="200" height="200" rx="100" fill="#353535"/>
<path d="M76.8251 51.6995C76.8251 49.2972 78.7725 47.3498 81.1747 47.3498C102.695 47.3498 121.759 61.2312 128.366 81.7123L128.927 83.4498C132.334 94.0114 134.069 105.041 134.069 116.138V209.894H76.8251V51.6995Z" fill="#94D6DA"/>
<path d="M67.7049 205.361C69.1776 218.749 58.6945 230.448 45.2256 230.448H21.1581C7.58714 230.448 -2.92781 218.579 -1.29187 205.107L12.4421 92.0083C13.0882 86.6871 17.6051 82.6855 22.9655 82.6855H44.7117C50.1177 82.6855 54.6577 86.7535 55.2488 92.1271L67.7049 205.361Z" fill="#F3F3F3"/>
<path d="M66.5434 238.163H-1.1009C-3.21792 238.163 -4.85983 236.314 -4.60972 234.211L7.8796 129.239C8.09108 127.461 9.59837 126.123 11.3884 126.123H55.598C57.4077 126.123 58.9249 127.49 59.1126 129.29L70.058 234.263C70.2754 236.348 68.6399 238.163 66.5434 238.163Z" fill="white"/>
<path d="M120.001 57.9131C120.254 57.3685 121.029 57.3685 121.282 57.9131L123.889 63.5121C123.93 63.6007 123.989 63.6797 124.063 63.7443L128.519 67.6674C128.839 67.9488 128.839 68.4469 128.519 68.7283L124.063 72.6515C123.989 72.716 123.93 72.7951 123.889 72.8836L121.282 78.4827C121.029 79.0272 120.254 79.0272 120.001 78.4827L117.394 72.8836C117.353 72.7951 117.293 72.716 117.22 72.6515L112.763 68.7283C112.444 68.4469 112.444 67.9488 112.763 67.6674L117.22 63.7443C117.293 63.6797 117.353 63.6007 117.394 63.5121L120.001 57.9131Z" fill="white"/>
<mask id="mask0" mask-type="alpha" maskUnits="userSpaceOnUse" x="76" y="47" width="59" height="163">
<path d="M76.8251 51.6995C76.8251 49.2972 78.7725 47.3498 81.1747 47.3498C102.695 47.3498 121.759 61.2311 128.366 81.7123L128.927 83.4498C132.334 94.0114 134.069 105.041 134.069 116.138V209.894H76.8251V51.6995Z" fill="#94D6DA"/>
</mask>
<g mask="url(#mask0)">
<path d="M78.9452 107.42C78.9452 106.64 79.578 106.007 80.3586 106.007H84.5989C85.3795 106.007 86.0123 106.64 86.0123 107.42V115.194C86.0123 115.975 85.3795 116.608 84.5989 116.608H80.3586C79.578 116.608 78.9452 115.975 78.9452 115.194V107.42Z" fill="#54BAC4"/>
<path d="M78.9452 120.141C78.9452 119.361 79.578 118.728 80.3586 118.728H84.5989C85.3795 118.728 86.0123 119.361 86.0123 120.141V127.915C86.0123 128.696 85.3795 129.329 84.5989 129.329H80.3586C79.578 129.329 78.9452 128.696 78.9452 127.915V120.141Z" fill="#54BAC4"/>
<path d="M78.9452 132.862C78.9452 132.082 79.578 131.449 80.3586 131.449H84.5989C85.3795 131.449 86.0123 132.082 86.0123 132.862V140.636C86.0123 141.417 85.3795 142.049 84.5989 142.049H80.3586C79.578 142.049 78.9452 141.417 78.9452 140.636V132.862Z" fill="#54BAC4"/>
<path d="M78.9452 145.583C78.9452 144.802 79.578 144.17 80.3586 144.17H84.5989C85.3795 144.17 86.0123 144.802 86.0123 145.583V153.357C86.0123 154.138 85.3795 154.77 84.5989 154.77H80.3586C79.578 154.77 78.9452 154.138 78.9452 153.357V145.583Z" fill="#54BAC4"/>
<path d="M78.9452 158.304C78.9452 157.523 79.578 156.89 80.3586 156.89H84.5989C85.3795 156.89 86.0123 157.523 86.0123 158.304V166.078C86.0123 166.858 85.3795 167.491 84.5989 167.491H80.3586C79.578 167.491 78.9452 166.858 78.9452 166.078V158.304Z" fill="#54BAC4"/>
<path d="M78.9452 171.025C78.9452 170.244 79.578 169.611 80.3586 169.611H84.5989C85.3795 169.611 86.0123 170.244 86.0123 171.025V178.799C86.0123 179.579 85.3795 180.212 84.5989 180.212H80.3586C79.578 180.212 78.9452 179.579 78.9452 178.799V171.025Z" fill="#54BAC4"/>
<path d="M78.9452 183.746C78.9452 182.965 79.578 182.332 80.3586 182.332H84.5989C85.3795 182.332 86.0123 182.965 86.0123 183.746V191.519C86.0123 192.3 85.3795 192.933 84.5989 192.933H80.3586C79.578 192.933 78.9452 192.3 78.9452 191.519V183.746Z" fill="#54BAC4"/>
<path d="M78.9452 196.466C78.9452 195.686 79.578 195.053 80.3586 195.053H84.5989C85.3795 195.053 86.0123 195.686 86.0123 196.466V204.24C86.0123 205.021 85.3795 205.654 84.5989 205.654H80.3586C79.578 205.654 78.9452 205.021 78.9452 204.24V196.466Z" fill="#54BAC4"/>
<path d="M88.1324 107.42C88.1324 106.64 88.7653 106.007 89.5459 106.007H93.7862C94.5668 106.007 95.1996 106.64 95.1996 107.42V115.194C95.1996 115.975 94.5668 116.608 93.7862 116.608H89.5459C88.7653 116.608 88.1324 115.975 88.1324 115.194V107.42Z" fill="#54BAC4"/>
<path d="M88.1324 120.141C88.1324 119.361 88.7653 118.728 89.5459 118.728H93.7862C94.5668 118.728 95.1996 119.361 95.1996 120.141V127.915C95.1996 128.696 94.5668 129.329 93.7862 129.329H89.5459C88.7653 129.329 88.1324 128.696 88.1324 127.915V120.141Z" fill="#54BAC4"/>
<path d="M88.1324 132.862C88.1324 132.082 88.7653 131.449 89.5459 131.449H93.7862C94.5668 131.449 95.1996 132.082 95.1996 132.862V140.636C95.1996 141.417 94.5668 142.049 93.7862 142.049H89.5459C88.7653 142.049 88.1324 141.417 88.1324 140.636V132.862Z" fill="#54BAC4"/>
<path d="M88.1324 145.583C88.1324 144.802 88.7653 144.17 89.5459 144.17H93.7862C94.5668 144.17 95.1996 144.802 95.1996 145.583V153.357C95.1996 154.137 94.5668 154.77 93.7862 154.77H89.5459C88.7653 154.77 88.1324 154.137 88.1324 153.357V145.583Z" fill="#54BAC4"/>
<path d="M88.1324 158.304C88.1324 157.523 88.7653 156.89 89.5459 156.89H93.7862C94.5668 156.89 95.1996 157.523 95.1996 158.304V166.078C95.1996 166.858 94.5668 167.491 93.7862 167.491H89.5459C88.7653 167.491 88.1324 166.858 88.1324 166.078V158.304Z" fill="#54BAC4"/>
<path d="M88.1324 171.025C88.1324 170.244 88.7653 169.611 89.5459 169.611H93.7862C94.5668 169.611 95.1996 170.244 95.1996 171.025V178.799C95.1996 179.579 94.5668 180.212 93.7862 180.212H89.5459C88.7653 180.212 88.1324 179.579 88.1324 178.799V171.025Z" fill="#54BAC4"/>
<path d="M88.1324 183.746C88.1324 182.965 88.7653 182.332 89.5459 182.332H93.7862C94.5668 182.332 95.1996 182.965 95.1996 183.746V191.519C95.1996 192.3 94.5668 192.933 93.7862 192.933H89.5459C88.7653 192.933 88.1324 192.3 88.1324 191.519V183.746Z" fill="#54BAC4"/>
<path d="M88.1324 196.466C88.1324 195.686 88.7653 195.053 89.5459 195.053H93.7862C94.5668 195.053 95.1996 195.686 95.1996 196.466V204.24C95.1996 205.021 94.5668 205.654 93.7862 205.654H89.5459C88.7653 205.654 88.1324 205.021 88.1324 204.24V196.466Z" fill="#54BAC4"/>
<path d="M97.3197 107.42C97.3197 106.64 97.9525 106.007 98.7331 106.007H102.973C103.754 106.007 104.387 106.64 104.387 107.42V115.194C104.387 115.975 103.754 116.608 102.973 116.608H98.7331C97.9525 116.608 97.3197 115.975 97.3197 115.194V107.42Z" fill="#54BAC4"/>
<path d="M97.3197 120.141C97.3197 119.361 97.9525 118.728 98.7331 118.728H102.973C103.754 118.728 104.387 119.361 104.387 120.141V127.915C104.387 128.696 103.754 129.329 102.973 129.329H98.7331C97.9525 129.329 97.3197 128.696 97.3197 127.915V120.141Z" fill="#54BAC4"/>
<path d="M97.3197 132.862C97.3197 132.082 97.9525 131.449 98.7331 131.449H102.973C103.754 131.449 104.387 132.082 104.387 132.862V140.636C104.387 141.417 103.754 142.049 102.973 142.049H98.7331C97.9525 142.049 97.3197 141.417 97.3197 140.636V132.862Z" fill="#54BAC4"/>
<path d="M97.3197 145.583C97.3197 144.802 97.9525 144.17 98.7331 144.17H102.973C103.754 144.17 104.387 144.802 104.387 145.583V153.357C104.387 154.137 103.754 154.77 102.973 154.77H98.7331C97.9525 154.77 97.3197 154.137 97.3197 153.357V145.583Z" fill="#54BAC4"/>
<path d="M97.3197 158.304C97.3197 157.523 97.9525 156.89 98.7331 156.89H102.973C103.754 156.89 104.387 157.523 104.387 158.304V166.078C104.387 166.858 103.754 167.491 102.973 167.491H98.7331C97.9525 167.491 97.3197 166.858 97.3197 166.078V158.304Z" fill="#54BAC4"/>
<path d="M97.3197 171.025C97.3197 170.244 97.9525 169.611 98.7331 169.611H102.973C103.754 169.611 104.387 170.244 104.387 171.025V178.799C104.387 179.579 103.754 180.212 102.973 180.212H98.7331C97.9525 180.212 97.3197 179.579 97.3197 178.799V171.025Z" fill="#54BAC4"/>
<path d="M97.3197 183.746C97.3197 182.965 97.9525 182.332 98.7331 182.332H102.973C103.754 182.332 104.387 182.965 104.387 183.746V191.519C104.387 192.3 103.754 192.933 102.973 192.933H98.7331C97.9525 192.933 97.3197 192.3 97.3197 191.519V183.746Z" fill="#54BAC4"/>
<path d="M97.3197 196.466C97.3197 195.686 97.9525 195.053 98.7331 195.053H102.973C103.754 195.053 104.387 195.686 104.387 196.466V204.24C104.387 205.021 103.754 205.654 102.973 205.654H98.7331C97.9525 205.654 97.3197 205.021 97.3197 204.24V196.466Z" fill="#54BAC4"/>
<path d="M106.507 43.8163C106.507 43.0356 107.14 42.4028 107.92 42.4028H112.161C112.941 42.4028 113.574 43.0356 113.574 43.8163V51.5901C113.574 52.3707 112.941 53.0035 112.161 53.0035H107.92C107.14 53.0035 106.507 52.3707 106.507 51.5901V43.8163Z" fill="#54BAC4"/>
<path d="M106.507 107.42C106.507 106.64 107.14 106.007 107.92 106.007H112.161C112.941 106.007 113.574 106.64 113.574 107.42V115.194C113.574 115.975 112.941 116.608 112.161 116.608H107.92C107.14 116.608 106.507 115.975 106.507 115.194V107.42Z" fill="#54BAC4"/>
<path d="M106.507 120.141C106.507 119.361 107.14 118.728 107.92 118.728H112.161C112.941 118.728 113.574 119.361 113.574 120.141V127.915C113.574 128.696 112.941 129.329 112.161 129.329H107.92C107.14 129.329 106.507 128.696 106.507 127.915V120.141Z" fill="#54BAC4"/>
<path d="M106.507 132.862C106.507 132.082 107.14 131.449 107.92 131.449H112.161C112.941 131.449 113.574 132.082 113.574 132.862V140.636C113.574 141.417 112.941 142.049 112.161 142.049H107.92C107.14 142.049 106.507 141.417 106.507 140.636V132.862Z" fill="#54BAC4"/>
<path d="M106.507 145.583C106.507 144.802 107.14 144.17 107.92 144.17H112.161C112.941 144.17 113.574 144.802 113.574 145.583V153.357C113.574 154.137 112.941 154.77 112.161 154.77H107.92C107.14 154.77 106.507 154.137 106.507 153.357V145.583Z" fill="#54BAC4"/>
<path d="M106.507 158.304C106.507 157.523 107.14 156.89 107.92 156.89H112.161C112.941 156.89 113.574 157.523 113.574 158.304V166.078C113.574 166.858 112.941 167.491 112.161 167.491H107.92C107.14 167.491 106.507 166.858 106.507 166.078V158.304Z" fill="#54BAC4"/>
<path d="M106.507 171.025C106.507 170.244 107.14 169.611 107.92 169.611H112.161C112.941 169.611 113.574 170.244 113.574 171.025V178.799C113.574 179.579 112.941 180.212 112.161 180.212H107.92C107.14 180.212 106.507 179.579 106.507 178.799V171.025Z" fill="#54BAC4"/>
<path d="M106.507 183.746C106.507 182.965 107.14 182.332 107.92 182.332H112.161C112.941 182.332 113.574 182.965 113.574 183.746V191.519C113.574 192.3 112.941 192.933 112.161 192.933H107.92C107.14 192.933 106.507 192.3 106.507 191.519V183.746Z" fill="#54BAC4"/>
<path d="M106.507 196.466C106.507 195.686 107.14 195.053 107.92 195.053H112.161C112.941 195.053 113.574 195.686 113.574 196.466V204.24C113.574 205.021 112.941 205.654 112.161 205.654H107.92C107.14 205.654 106.507 205.021 106.507 204.24V196.466Z" fill="#54BAC4"/>
<path d="M115.694 43.8163C115.694 43.0356 116.327 42.4028 117.108 42.4028H121.348C122.129 42.4028 122.761 43.0356 122.761 43.8163V51.5901C122.761 52.3707 122.129 53.0035 121.348 53.0035H117.108C116.327 53.0035 115.694 52.3707 115.694 51.5901V43.8163Z" fill="#54BAC4"/>
<path d="M115.694 107.42C115.694 106.64 116.327 106.007 117.108 106.007H121.348C122.129 106.007 122.761 106.64 122.761 107.42V115.194C122.761 115.975 122.129 116.608 121.348 116.608H117.108C116.327 116.608 115.694 115.975 115.694 115.194V107.42Z" fill="#54BAC4"/>
<path d="M115.694 120.141C115.694 119.361 116.327 118.728 117.108 118.728H121.348C122.129 118.728 122.761 119.361 122.761 120.141V127.915C122.761 128.696 122.129 129.329 121.348 129.329H117.108C116.327 129.329 115.694 128.696 115.694 127.915V120.141Z" fill="#54BAC4"/>
<path d="M115.694 132.862C115.694 132.082 116.327 131.449 117.108 131.449H121.348C122.129 131.449 122.761 132.082 122.761 132.862V140.636C122.761 141.417 122.129 142.049 121.348 142.049H117.108C116.327 142.049 115.694 141.417 115.694 140.636V132.862Z" fill="#54BAC4"/>
<path d="M115.694 145.583C115.694 144.802 116.327 144.17 117.108 144.17H121.348C122.129 144.17 122.761 144.802 122.761 145.583V153.357C122.761 154.137 122.129 154.77 121.348 154.77H117.108C116.327 154.77 115.694 154.137 115.694 153.357V145.583Z" fill="#54BAC4"/>
<path d="M115.694 158.304C115.694 157.523 116.327 156.89 117.108 156.89H121.348C122.129 156.89 122.761 157.523 122.761 158.304V166.078C122.761 166.858 122.129 167.491 121.348 167.491H117.108C116.327 167.491 115.694 166.858 115.694 166.078V158.304Z" fill="#54BAC4"/>
<path d="M115.694 171.025C115.694 170.244 116.327 169.611 117.108 169.611H121.348C122.129 169.611 122.761 170.244 122.761 171.025V178.799C122.761 179.579 122.129 180.212 121.348 180.212H117.108C116.327 180.212 115.694 179.579 115.694 178.799V171.025Z" fill="#54BAC4"/>
<path d="M115.694 183.746C115.694 182.965 116.327 182.332 117.108 182.332H121.348C122.129 182.332 122.761 182.965 122.761 183.746V191.519C122.761 192.3 122.129 192.933 121.348 192.933H117.108C116.327 192.933 115.694 192.3 115.694 191.519V183.746Z" fill="#54BAC4"/>
<path d="M115.694 196.466C115.694 195.686 116.327 195.053 117.108 195.053H121.348C122.129 195.053 122.761 195.686 122.761 196.466V204.24C122.761 205.021 122.129 205.654 121.348 205.654H117.108C116.327 205.654 115.694 205.021 115.694 204.24V196.466Z" fill="#54BAC4"/>
<path d="M124.882 43.8163C124.882 43.0356 125.514 42.4028 126.295 42.4028H130.535C131.316 42.4028 131.949 43.0356 131.949 43.8163V51.5901C131.949 52.3707 131.316 53.0035 130.535 53.0035H126.295C125.514 53.0035 124.882 52.3707 124.882 51.5901V43.8163Z" fill="#54BAC4"/>
<path d="M124.882 56.5371C124.882 55.7565 125.514 55.1237 126.295 55.1237H130.535C131.316 55.1237 131.949 55.7565 131.949 56.5371V64.311C131.949 65.0916 131.316 65.7244 130.535 65.7244H126.295C125.514 65.7244 124.882 65.0916 124.882 64.311V56.5371Z" fill="#54BAC4"/>
<path d="M124.882 107.42C124.882 106.64 125.514 106.007 126.295 106.007H130.535C131.316 106.007 131.949 106.64 131.949 107.42V115.194C131.949 115.975 131.316 116.608 130.535 116.608H126.295C125.514 116.608 124.882 115.975 124.882 115.194V107.42Z" fill="#54BAC4"/>
<path d="M124.882 120.141C124.882 119.361 125.514 118.728 126.295 118.728H130.535C131.316 118.728 131.949 119.361 131.949 120.141V127.915C131.949 128.696 131.316 129.329 130.535 129.329H126.295C125.514 129.329 124.882 128.696 124.882 127.915V120.141Z" fill="#54BAC4"/>
<path d="M124.882 132.862C124.882 132.082 125.514 131.449 126.295 131.449H130.535C131.316 131.449 131.949 132.082 131.949 132.862V140.636C131.949 141.417 131.316 142.049 130.535 142.049H126.295C125.514 142.049 124.882 141.417 124.882 140.636V132.862Z" fill="#54BAC4"/>
<path d="M124.882 145.583C124.882 144.802 125.514 144.17 126.295 144.17H130.535C131.316 144.17 131.949 144.802 131.949 145.583V153.357C131.949 154.137 131.316 154.77 130.535 154.77H126.295C125.514 154.77 124.882 154.137 124.882 153.357V145.583Z" fill="#54BAC4"/>
<path d="M124.882 158.304C124.882 157.523 125.514 156.89 126.295 156.89H130.535C131.316 156.89 131.949 157.523 131.949 158.304V166.078C131.949 166.858 131.316 167.491 130.535 167.491H126.295C125.514 167.491 124.882 166.858 124.882 166.078V158.304Z" fill="#54BAC4"/>
<path d="M124.882 171.025C124.882 170.244 125.514 169.611 126.295 169.611H130.535C131.316 169.611 131.949 170.244 131.949 171.025V178.799C131.949 179.579 131.316 180.212 130.535 180.212H126.295C125.514 180.212 124.882 179.579 124.882 178.799V171.025Z" fill="#54BAC4"/>
<path d="M124.882 183.746C124.882 182.965 125.514 182.332 126.295 182.332H130.535C131.316 182.332 131.949 182.965 131.949 183.746V191.519C131.949 192.3 131.316 192.933 130.535 192.933H126.295C125.514 192.933 124.882 192.3 124.882 191.519V183.746Z" fill="#54BAC4"/>
<path d="M124.882 196.466C124.882 195.686 125.514 195.053 126.295 195.053H130.535C131.316 195.053 131.949 195.686 131.949 196.466V204.24C131.949 205.021 131.316 205.654 130.535 205.654H126.295C125.514 205.654 124.882 205.021 124.882 204.24V196.466Z" fill="#54BAC4"/>
<path d="M134.069 81.9788C134.069 81.1982 134.702 80.5654 135.482 80.5654H139.723C140.503 80.5654 141.136 81.1982 141.136 81.9788V89.7526C141.136 90.5333 140.503 91.1661 139.723 91.1661H135.482C134.702 91.1661 134.069 90.5333 134.069 89.7526V81.9788Z" fill="#54BAC4"/>
<path d="M134.069 94.6996C134.069 93.919 134.702 93.2862 135.482 93.2862H139.723C140.503 93.2862 141.136 93.919 141.136 94.6996V102.473C141.136 103.254 140.503 103.887 139.723 103.887H135.482C134.702 103.887 134.069 103.254 134.069 102.473V94.6996Z" fill="#54BAC4"/>
<path d="M134.069 107.42C134.069 106.64 134.702 106.007 135.482 106.007H139.723C140.503 106.007 141.136 106.64 141.136 107.42V115.194C141.136 115.975 140.503 116.608 139.723 116.608H135.482C134.702 116.608 134.069 115.975 134.069 115.194V107.42Z" fill="#54BAC4"/>
<path d="M134.069 120.141C134.069 119.361 134.702 118.728 135.482 118.728H139.723C140.503 118.728 141.136 119.361 141.136 120.141V127.915C141.136 128.696 140.503 129.329 139.723 129.329H135.482C134.702 129.329 134.069 128.696 134.069 127.915V120.141Z" fill="#54BAC4"/>
<path d="M134.069 132.862C134.069 132.082 134.702 131.449 135.482 131.449H139.723C140.503 131.449 141.136 132.082 141.136 132.862V140.636C141.136 141.417 140.503 142.049 139.723 142.049H135.482C134.702 142.049 134.069 141.417 134.069 140.636V132.862Z" fill="#54BAC4"/>
<path d="M134.069 145.583C134.069 144.802 134.702 144.17 135.482 144.17H139.723C140.503 144.17 141.136 144.802 141.136 145.583V153.357C141.136 154.137 140.503 154.77 139.723 154.77H135.482C134.702 154.77 134.069 154.137 134.069 153.357V145.583Z" fill="#54BAC4"/>
<path d="M134.069 158.304C134.069 157.523 134.702 156.89 135.482 156.89H139.723C140.503 156.89 141.136 157.523 141.136 158.304V166.078C141.136 166.858 140.503 167.491 139.723 167.491H135.482C134.702 167.491 134.069 166.858 134.069 166.078V158.304Z" fill="#54BAC4"/>
<path d="M134.069 171.025C134.069 170.244 134.702 169.611 135.482 169.611H139.723C140.503 169.611 141.136 170.244 141.136 171.025V178.799C141.136 179.579 140.503 180.212 139.723 180.212H135.482C134.702 180.212 134.069 179.579 134.069 178.799V171.025Z" fill="#54BAC4"/>
<path d="M134.069 183.746C134.069 182.965 134.702 182.332 135.482 182.332H139.723C140.503 182.332 141.136 182.965 141.136 183.746V191.519C141.136 192.3 140.503 192.933 139.723 192.933H135.482C134.702 192.933 134.069 192.3 134.069 191.519V183.746Z" fill="#54BAC4"/>
<path d="M134.069 196.466C134.069 195.686 134.702 195.053 135.482 195.053H139.723C140.503 195.053 141.136 195.686 141.136 196.466V204.24C141.136 205.021 140.503 205.654 139.723 205.654H135.482C134.702 205.654 134.069 205.021 134.069 204.24V196.466Z" fill="#54BAC4"/>
</g>
<mask id="mask1" mask-type="alpha" maskUnits="userSpaceOnUse" x="-4" y="125" width="76" height="113">
<path d="M71.6 237.452L-3.94296 237.92L8.69304 125.8L59.2241 125.487L71.6 237.452Z" fill="#D0C9C9"/>
</mask>
<g mask="url(#mask1)">
<path fill-rule="evenodd" clip-rule="evenodd" d="M3.32687 130.742H67.6378V132.155H3.32687V130.742Z" fill="#D2D2D2"/>
<path fill-rule="evenodd" clip-rule="evenodd" d="M3.32687 130.742H67.6378V132.155H3.32687V130.742Z" fill="#D2D2D2"/>
<path fill-rule="evenodd" clip-rule="evenodd" d="M3.32686 137.809H67.6378V139.223H3.32686V137.809Z" fill="#D2D2D2"/>
<path fill-rule="evenodd" clip-rule="evenodd" d="M3.32686 137.809H67.6378V139.223H3.32686V137.809Z" fill="#D2D2D2"/>
<path fill-rule="evenodd" clip-rule="evenodd" d="M3.32686 145.583H67.6378V146.996H3.32686V145.583Z" fill="#D2D2D2"/>
<path fill-rule="evenodd" clip-rule="evenodd" d="M3.32686 145.583H67.6378V146.996H3.32686V145.583Z" fill="#D2D2D2"/>
<path fill-rule="evenodd" clip-rule="evenodd" d="M3.32686 152.65H67.6378V154.064H3.32686V152.65Z" fill="#D2D2D2"/>
<path fill-rule="evenodd" clip-rule="evenodd" d="M3.32686 152.65H67.6378V154.064H3.32686V152.65Z" fill="#D2D2D2"/>
<path fill-rule="evenodd" clip-rule="evenodd" d="M3.32685 159.717H67.6378V161.131H3.32685V159.717Z" fill="#D2D2D2"/>
<path fill-rule="evenodd" clip-rule="evenodd" d="M3.32685 159.717H67.6378V161.131H3.32685V159.717Z" fill="#D2D2D2"/>
<path fill-rule="evenodd" clip-rule="evenodd" d="M3.32687 166.784H67.6378V168.198H3.32687V166.784Z" fill="#D2D2D2"/>
<path fill-rule="evenodd" clip-rule="evenodd" d="M3.32687 166.784H67.6378V168.198H3.32687V166.784Z" fill="#D2D2D2"/>
<path fill-rule="evenodd" clip-rule="evenodd" d="M3.32686 173.852H67.6378V175.265H3.32686V173.852Z" fill="#D2D2D2"/>
<path fill-rule="evenodd" clip-rule="evenodd" d="M3.32686 173.852H67.6378V175.265H3.32686V173.852Z" fill="#D2D2D2"/>
<path fill-rule="evenodd" clip-rule="evenodd" d="M3.32686 180.919H67.6378V182.332H3.32686V180.919Z" fill="#D2D2D2"/>
<path fill-rule="evenodd" clip-rule="evenodd" d="M3.32686 180.919H67.6378V182.332H3.32686V180.919Z" fill="#D2D2D2"/>
<path fill-rule="evenodd" clip-rule="evenodd" d="M3.32686 187.986H67.6378V189.399H3.32686V187.986Z" fill="#D2D2D2"/>
<path fill-rule="evenodd" clip-rule="evenodd" d="M3.32686 187.986H67.6378V189.399H3.32686V187.986Z" fill="#D2D2D2"/>
<path fill-rule="evenodd" clip-rule="evenodd" d="M3.32686 195.76H67.6378V197.173H3.32686V195.76Z" fill="#D2D2D2"/>
<path fill-rule="evenodd" clip-rule="evenodd" d="M3.32686 195.76H67.6378V197.173H3.32686V195.76Z" fill="#D2D2D2"/>
</g>
<path d="M151.742 97.3014C151.742 95.3499 153.324 93.7679 155.275 93.7679L176.929 93.7679C178.88 93.7679 180.462 95.3499 180.462 97.3014L180.462 286.293C180.462 288.245 178.88 289.827 176.929 289.827L155.275 289.827C153.324 289.827 151.742 288.245 151.742 286.293L151.742 97.3014Z" fill="#C4C4C4"/>
<path d="M157.684 77.4939C157.684 75.5424 159.266 73.9603 161.218 73.9603H170.987C172.938 73.9603 174.52 75.5424 174.52 77.4939V266.486C174.52 268.437 172.938 270.019 170.987 270.019H161.218C159.266 270.019 157.684 268.437 157.684 266.486V77.4939Z" fill="#C4C4C4"/>
<path d="M164.929 14.6011C164.929 13.953 165.454 13.4276 166.102 13.4276C166.75 13.4276 167.276 13.953 167.276 14.6011V244.617C167.276 245.265 166.75 245.791 166.102 245.791C165.454 245.791 164.929 245.265 164.929 244.617V14.6011Z" fill="#C4C4C4"/>
<path d="M146.79 114.138C146.79 112.186 148.372 110.604 150.323 110.604L181.881 110.604C183.832 110.604 185.414 112.186 185.414 114.138L185.414 303.13C185.414 305.081 183.832 306.663 181.881 306.663L150.323 306.663C148.372 306.663 146.79 305.081 146.79 303.13L146.79 114.138Z" fill="#C4C4C4"/>
</g>
<path d="M58.4506 20.4947C58.4506 31.8136 49.2748 40.9894 37.9559 40.9894C26.637 40.9894 17.4612 31.8136 17.4612 20.4947C17.4612 9.17579 26.637 0 37.9559 0C49.2748 0 58.4506 9.17579 58.4506 20.4947Z" fill="#FCF2DE"/>
<mask id="mask2" mask-type="alpha" maskUnits="userSpaceOnUse" x="0" y="0" width="201" height="200">
<path d="M200.5 100C200.5 155.228 155.728 200 100.5 200C45.2715 200 0.5 155.228 0.5 100C0.5 44.7715 45.2715 0 100.5 0C155.728 0 200.5 44.7715 200.5 100Z" fill="#C4C4C4"/>
</mask>
<g mask="url(#mask2)">
<path d="M58.4506 20.4947C58.4506 31.8136 49.2748 40.9894 37.9559 40.9894C26.637 40.9894 17.4612 31.8136 17.4612 20.4947C17.4612 9.17579 26.637 0 37.9559 0C49.2748 0 58.4506 9.17579 58.4506 20.4947Z" fill="#FFDA44"/>
</g>
</g>
<defs>
<clipPath id="clip0">
<rect width="200" height="200" fill="white" transform="translate(0.500122)"/>
</clipPath>
<clipPath id="clip1">
<rect x="0.5" width="200" height="200" rx="100" fill="white"/>
</clipPath>
</defs>
</svg>
